{"glyphs":{":":{"x_min":0,"x_max":199,"ha":199,"o":"m 158 323 q 158 297 141 277 q 124 257 99 257 q 73 257 56 277 q 39 297 39 323 q 39 349 56 369 q 73 389 99 389 q 124 389 141 369 q 158 349 158 323 z m 158 67 q 158 40 141 20 q 124 0 99 0 q 73 0 56 20 q 39 40 39 67 q 39 93 56 113 q 73 133 99 133 q 124 133 141 113 q 158 93 158 67 z"},"$":{"x_min":0,"x_max":344,"ha":344,"o":"m 144 19 l 144 115 q 93 115 60 146 q 27 177 13 228 l 44 237 q 54 202 80 180 q 105 157 146 157 l 146 303 q 118 316 96 328 q 74 340 58 354 q 43 369 35 388 q 27 408 27 437 q 27 485 58 518 q 90 551 145 556 q 145 584 142 670 l 184 670 q 182 651 180 622 q 179 594 179 555 q 205 550 238 523 l 238 565 l 276 565 l 276 437 l 238 437 q 238 503 178 514 l 178 384 q 206 372 230 363 q 253 354 270 342 q 287 329 296 308 q 306 288 306 252 q 306 228 296 206 q 287 184 270 166 q 253 148 230 136 q 207 123 179 118 q 182 31 182 19 z m 209 228 q 209 260 178 285 q 178 255 178 226 q 178 197 179 168 q 209 187 209 228 z m 116 459 q 116 424 145 401 l 145 511 q 116 500 116 459 z"},"?":{"x_min":0,"x_max":364,"ha":364,"o":"m 326 532 q 326 491 312 460 q 297 430 276 406 q 254 382 228 363 q 203 344 182 326 q 160 309 146 291 q 131 273 131 251 q 131 231 146 214 q 162 198 181 197 l 181 175 q 146 175 122 199 q 97 223 97 258 q 97 287 108 307 q 118 327 134 344 q 150 360 169 376 q 188 392 204 412 q 220 433 230 461 q 241 489 241 530 q 241 566 234 590 q 228 613 218 627 q 207 641 194 646 q 181 652 167 652 q 109 652 108 625 q 150 610 150 562 q 150 536 133 516 q 116 496 90 496 q 65 496 48 515 q 30 534 30 559 q 30 620 68 657 q 106 694 167 694 q 242 694 284 656 q 326 619 326 532 z m 213 67 q 213 40 196 20 q 179 0 153 0 q 128 0 111 20 q 94 40 94 67 q 94 93 111 113 q 128 133 153 133 q 179 133 196 113 q 213 93 213 67 z"},"<":{"x_min":0,"x_max":462,"ha":462,"o":"m 103 286 q 182 221 268 190 l 244 119 q 164 191 47 255 l 45 297 q 121 351 172 388 q 222 425 248 448 l 259 404 z"},"'":{"x_min":0,"x_max":153,"ha":153,"o":"m 62 683 q 102 683 102 634 q 102 623 97 603 q 70 496 70 446 l 56 446 q 56 493 26 603 q 21 621 21 632 q 21 652 32 668 q 43 683 62 683 z"},"=":{"x_min":0,"x_max":195,"ha":195,"o":"m 158 313 l 14 313 l 14 390 l 158 390 z m 158 175 l 14 175 l 14 251 l 158 251 z"},"a":{"x_min":0,"x_max":405,"ha":405,"o":"m 396 64 q 396 34 376 13 q 356 -8 325 -8 q 275 -8 253 37 q 225 15 198 3 q 170 -9 143 -9 q 77 -9 44 21 q 11 51 11 108 q 11 136 22 158 q 34 179 59 192 q 83 204 108 215 q 134 226 157 238 q 180 250 200 264 q 221 277 235 295 q 234 331 231 354 q 228 376 222 389 q 216 402 205 407 q 194 412 177 412 q 118 412 118 385 q 159 370 159 321 q 159 295 142 275 q 125 255 100 255 q 74 255 57 274 q 40 293 40 319 q 40 352 51 377 q 62 402 82 419 q 101 436 128 445 q 154 454 184 454 q 220 454 246 445 q 273 436 290 409 q 307 382 315 332 q 323 283 323 202 q 323 127 326 86 q 330 44 343 44 q 349 44 354 50 q 358 56 358 67 l 358 98 l 396 98 z m 239 124 q 239 158 238 192 q 238 226 237 260 q 222 238 200 223 q 179 208 160 194 q 140 179 126 161 q 112 143 112 115 q 112 87 128 72 q 145 56 178 56 q 204 56 222 77 q 239 98 239 124 z"},"L":{"x_min":0,"x_max":460,"ha":460,"o":"m 446 -171 l 17 -171 l 17 -129 l 32 -129 q 42 -129 48 -127 q 53 -125 56 -116 q 59 -108 60 -92 q 60 -75 61 -46 q 61 -35 62 -6 q 62 22 62 60 q 63 98 64 140 q 64 183 64 222 q 65 260 65 289 q 65 318 65 330 q 65 338 65 359 q 65 380 64 408 q 64 435 64 466 q 63 497 62 526 q 61 555 60 578 q 60 601 59 613 q 57 633 48 637 q 39 641 17 641 l 17 683 l 196 683 l 196 641 l 184 642 q 160 642 155 613 q 155 608 154 574 q 152 540 150 493 q 149 446 148 396 q 147 345 147 308 q 147 111 153 -60 q 153 -65 154 -76 q 156 -88 160 -100 q 163 -111 170 -120 q 176 -129 185 -129 l 381 -129 q 407 -129 407 -74 l 446 -74 z"},"3":{"x_min":0,"x_max":336,"ha":336,"o":"m 321 189 q 321 150 308 114 q 294 78 270 51 q 247 24 216 8 q 186 -9 152 -9 q 91 -9 53 28 q 15 65 15 126 q 15 151 32 170 q 50 189 75 189 q 101 189 118 169 q 135 149 135 123 q 135 73 93 60 q 94 33 152 33 q 166 33 179 40 q 192 46 202 57 q 213 68 219 82 q 225 96 225 111 l 225 271 q 225 287 220 302 q 214 316 205 326 q 196 337 184 344 q 172 350 159 350 l 118 350 l 118 382 l 160 382 q 170 382 180 388 q 190 394 198 404 q 206 413 210 424 q 215 436 215 448 l 215 574 q 215 589 211 603 q 207 617 200 628 q 192 639 181 646 q 170 652 156 652 q 98 652 97 625 q 139 610 139 562 q 139 536 122 516 q 105 496 79 496 q 54 496 36 515 q 19 534 19 559 q 19 620 57 657 q 95 694 156 694 q 192 694 220 680 q 248 665 267 640 q 286 615 296 582 q 306 549 306 513 l 306 502 q 306 451 288 414 q 271 378 230 364 q 271 342 296 296 q 321 250 321 189 z"},";":{"x_min":0,"x_max":195,"ha":195,"o":"m 158 323 q 158 297 141 277 q 124 257 99 257 q 73 257 56 277 q 39 297 39 323 q 39 349 56 369 q 73 389 99 389 q 124 389 141 369 q 158 349 158 323 z m 158 66 q 158 46 150 22 q 141 -3 128 -24 q 115 -46 99 -60 q 83 -75 68 -75 l 62 -56 q 110 -39 113 3 q 100 -2 90 -2 q 67 -2 53 18 q 39 38 39 67 q 39 94 56 113 q 72 132 99 132 q 126 132 142 113 q 158 94 158 66 z"},"J":{"x_min":0,"x_max":329,"ha":329,"o":"m 300 683 q 299 668 298 621 q 297 574 296 510 q 295 446 294 372 q 292 299 292 230 q 291 161 290 104 q 290 47 290 17 q 290 -75 250 -128 q 210 -182 141 -182 q 81 -182 43 -144 q 5 -107 5 -47 q 5 -21 22 -2 q 39 17 64 17 q 90 17 107 -3 q 124 -23 124 -50 q 124 -98 82 -113 q 83 -140 141 -140 q 158 -140 170 -134 q 182 -129 190 -113 q 198 -97 202 -68 q 207 -40 209 6 q 211 53 212 120 q 212 186 212 278 q 212 290 212 316 q 211 343 210 378 q 210 412 209 450 q 208 487 208 520 q 207 553 206 578 q 205 603 204 612 q 202 623 200 629 q 197 635 192 638 q 188 640 181 640 q 174 641 162 641 l 162 683 z"},"V":{"x_min":0,"x_max":465,"ha":465,"o":"m 456 641 l 449 641 q 436 641 430 638 q 423 635 418 624 q 414 612 410 590 q 405 567 398 529 q 327 161 272 -170 l 205 -170 q 184 -23 150 152 q 117 326 73 534 q 67 564 63 584 q 59 605 54 618 q 49 630 41 636 q 33 641 18 641 l 18 683 l 192 683 l 192 641 l 182 641 q 149 641 149 623 q 149 610 154 582 q 158 554 163 519 q 165 502 172 460 q 179 417 188 362 q 198 306 208 244 q 219 181 228 125 q 238 69 246 25 q 253 -19 257 -38 q 266 -1 280 64 q 293 128 310 221 q 330 327 346 424 q 361 522 374 613 q 375 618 375 622 q 375 634 364 638 q 353 641 332 641 l 332 683 l 456 683 z"},"\"":{"x_min":0,"x_max":249,"ha":249,"o":"m 198 634 q 198 623 193 603 q 166 496 166 446 l 152 446 q 152 493 122 603 q 117 621 117 632 q 117 652 128 668 q 139 683 158 683 q 198 683 198 634 z m 102 634 q 102 623 97 603 q 70 496 70 446 l 56 446 q 56 493 26 603 q 21 621 21 632 q 21 652 32 668 q 43 683 62 683 q 102 683 102 634 z"},"7":{"x_min":0,"x_max":309,"ha":309,"o":"m 309 683 q 297 655 277 612 q 257 570 234 513 q 192 410 171 295 q 150 180 150 61 q 150 -15 102 -15 q 79 -15 64 5 q 49 25 49 51 q 49 90 60 143 q 70 196 91 253 q 95 263 111 298 q 127 333 149 382 q 171 432 196 492 q 220 551 240 611 l 74 611 q 48 611 48 557 l 8 557 l 8 683 z"},"S":{"x_min":0,"x_max":344,"ha":344,"o":"m 321 -6 q 321 -47 306 -80 q 291 -113 266 -136 q 241 -158 210 -170 q 179 -182 147 -182 q 100 -182 64 -152 q 28 -123 13 -68 l 44 -60 q 54 -94 80 -117 q 105 -140 139 -140 q 190 -140 211 -108 q 232 -76 232 -19 q 232 41 206 104 q 179 166 125 241 q 71 316 45 390 q 19 464 19 524 q 19 563 30 594 q 42 626 62 648 q 81 670 108 682 q 135 694 166 694 q 198 694 238 660 l 238 702 l 276 702 l 276 574 l 238 574 q 238 609 219 630 q 200 652 166 652 q 106 652 106 554 q 106 436 213 278 q 267 199 294 131 q 321 63 321 -6 z"},"Z":{"x_min":0,"x_max":335,"ha":335,"o":"m 339 -171 l 0 -171 l 0 -129 l 6 -112 q 10 -100 20 -64 q 30 -29 44 22 q 59 73 76 134 q 93 196 111 260 q 129 324 146 386 q 163 448 177 500 q 191 552 201 590 q 211 627 215 641 l 90 641 q 77 641 70 625 q 64 609 64 588 l 25 588 l 25 683 l 309 683 l 309 641 q 309 642 303 624 q 280 553 253 462 q 226 371 194 259 q 160 139 134 42 q 108 -54 90 -129 l 273 -129 q 286 -129 293 -111 q 300 -93 300 -74 l 339 -74 z"},"x":{"x_min":0,"x_max":358,"ha":358,"o":"m 350 0 l 171 0 l 171 42 l 179 42 q 215 42 215 60 q 215 85 158 196 q 101 85 101 60 q 101 42 145 42 l 145 0 l 7 0 l 7 42 q 25 42 36 46 q 48 50 61 68 q 74 85 92 122 q 111 158 143 224 q 105 291 56 374 q 38 403 7 403 l 7 445 l 186 445 l 186 403 q 142 403 142 385 q 142 373 196 261 q 250 373 250 385 q 250 403 207 403 l 207 445 l 344 445 l 344 403 q 321 403 310 397 q 298 391 285 369 q 274 351 258 318 q 241 284 212 230 q 223 200 239 167 q 255 134 274 106 q 292 78 312 60 q 331 42 350 42 z"},")":{"x_min":0,"x_max":254,"ha":254,"o":"m 204 80 q 204 -16 160 -86 q 109 -165 17 -170 l 17 -124 q 66 -110 97 -72 q 128 -33 128 18 l 128 469 q 128 527 100 571 q 68 621 17 636 l 17 683 q 113 683 164 581 q 204 501 204 394 z"},"&":{"x_min":0,"x_max":436,"ha":436,"o":"m 180 682 q 200 682 218 672 q 237 662 252 646 q 266 631 275 611 q 284 591 284 570 q 284 545 280 524 q 277 503 266 482 q 256 460 238 434 q 219 408 190 372 q 215 314 244 260 q 272 207 301 163 q 330 119 357 88 q 384 57 405 45 l 405 3 q 368 18 305 81 q 264 3 180 3 q 147 3 118 18 q 89 34 68 60 q 46 86 34 120 q 21 154 21 191 q 21 329 105 398 q 67 494 67 550 q 67 613 96 648 q 126 682 180 682 z m 169 645 q 150 645 138 628 q 127 611 127 592 q 127 540 162 441 q 223 489 223 570 q 223 602 208 624 q 194 645 169 645 z m 288 99 q 209 182 144 311 q 117 264 117 182 q 117 120 134 82 q 151 45 180 45 q 195 45 210 49 q 226 53 241 60 q 256 67 268 77 q 280 87 288 99 z"},"_":{"x_min":0,"x_max":320,"ha":320,"o":"m 330 -84 q 250 -78 173 -78 q 84 -78 -6 -84 l -6 -17 q 46 -21 92 -23 q 137 -25 181 -25 q 219 -25 256 -23 q 292 -21 330 -17 z"},"v":{"x_min":0,"x_max":361,"ha":361,"o":"m 352 403 l 343 403 q 332 403 326 398 q 320 392 314 375 q 294 314 270 221 q 246 128 220 0 l 154 0 q 136 93 111 186 q 86 279 51 375 q 43 395 36 399 q 29 403 16 403 l 16 445 l 189 445 l 189 403 l 178 403 q 145 403 145 385 q 145 385 147 375 q 174 219 213 115 q 246 219 273 375 q 274 380 274 384 q 274 403 231 403 l 231 445 l 352 445 z"},"O":{"x_min":0,"x_max":489,"ha":489,"o":"m 251 -181 q 189 -181 145 -163 q 101 -145 74 -112 q 46 -79 34 -33 q 21 13 21 70 l 21 404 q 21 464 32 517 q 43 570 68 609 q 94 648 136 670 q 178 693 240 693 q 305 693 348 670 q 391 648 417 609 q 443 570 454 518 q 465 465 465 404 l 465 70 q 465 13 452 -33 q 439 -79 412 -112 q 386 -145 346 -163 q 305 -181 251 -181 z m 244 -139 q 300 -139 334 -98 q 368 -57 368 8 l 368 479 q 368 557 336 604 q 304 651 244 651 q 182 651 150 604 q 118 558 118 479 l 118 8 q 118 -58 152 -98 q 186 -139 244 -139 z"},"(":{"x_min":0,"x_max":224,"ha":224,"o":"m 196 636 q 145 621 113 571 q 85 525 85 469 l 85 18 q 85 -33 116 -71 q 147 -109 196 -124 l 196 -170 q 104 -165 53 -86 q 9 -16 9 80 l 9 394 q 9 501 49 581 q 100 683 196 683 z"},"C":{"x_min":0,"x_max":400,"ha":400,"o":"m 385 567 q 385 540 368 518 q 352 496 325 496 q 273 496 273 559 q 273 586 280 600 q 286 615 309 624 q 285 651 232 651 q 170 651 138 604 q 106 558 106 479 l 106 8 q 106 -58 140 -98 q 174 -139 232 -139 q 320 -139 343 -68 l 374 -68 q 335 -181 231 -181 q 174 -181 132 -162 q 91 -143 64 -110 q 36 -76 22 -30 q 9 16 9 70 l 9 404 q 9 465 22 518 q 34 571 60 610 q 87 649 128 671 q 170 693 229 693 q 265 693 294 683 q 323 673 343 656 q 363 639 374 616 q 385 593 385 567 z"},"W":{"x_min":0,"x_max":693,"ha":693,"o":"m 206 641 l 177 641 q 144 641 144 623 l 145 609 q 146 595 148 572 q 150 549 154 524 q 157 508 162 465 q 168 422 175 366 q 182 310 190 246 q 199 183 207 126 q 215 69 222 24 q 228 -20 232 -38 q 233 -33 242 4 q 251 42 264 96 q 276 150 291 212 q 306 274 318 329 q 331 384 340 424 q 349 463 350 471 l 398 471 q 400 454 408 414 q 416 375 427 324 q 438 272 450 215 q 462 158 474 107 q 485 56 494 17 q 502 -22 505 -38 q 507 -29 512 4 q 518 37 525 84 q 532 132 540 190 q 549 248 558 307 q 567 366 575 422 q 583 478 589 522 q 595 566 599 593 q 603 620 603 622 q 603 634 586 638 q 568 641 547 641 l 547 683 l 682 683 l 682 641 l 675 641 q 664 641 657 637 q 650 633 645 621 q 640 609 636 587 q 632 565 626 529 l 598 357 q 573 203 556 72 q 539 -58 519 -170 l 453 -170 q 447 -128 436 -78 q 425 -28 411 30 q 397 89 381 156 q 365 223 350 299 q 337 227 322 162 q 307 96 293 38 q 279 -21 266 -73 q 254 -125 247 -170 l 180 -170 q 166 -90 155 -10 q 144 70 132 155 q 121 240 106 332 q 92 424 71 529 q 69 539 66 558 q 62 577 56 596 q 49 614 38 628 q 28 641 10 641 l 10 683 l 206 683 z"},"A":{"x_min":0,"x_max":471,"ha":471,"o":"m 450 -169 l 271 -169 l 271 -127 l 282 -127 q 315 -127 315 -109 q 315 -96 310 -67 q 305 -38 300 0 l 103 0 l 89 -97 q 88 -100 88 -104 q 88 -107 88 -110 q 88 -121 98 -124 q 109 -127 131 -127 l 131 -169 l 7 -169 l 7 -127 l 18 -127 q 39 -127 48 -99 q 88 102 124 298 q 160 494 192 684 l 258 684 q 277 544 308 374 q 340 205 385 3 q 392 -32 409 -99 q 412 -109 415 -114 q 418 -120 422 -123 q 427 -126 434 -126 q 440 -127 450 -127 z m 294 41 q 291 58 284 98 q 278 138 269 189 q 260 240 250 298 q 241 355 232 406 q 223 457 216 496 q 209 536 206 552 q 204 543 196 505 q 189 467 179 414 q 169 362 158 302 q 146 241 136 188 q 127 134 120 94 q 112 53 110 41 z"},"f":{"x_min":0,"x_max":289,"ha":289,"o":"m 185 714 q 204 714 224 706 q 245 698 262 682 q 280 665 291 640 q 302 614 302 580 q 302 554 284 535 q 267 516 242 516 q 216 516 200 536 q 183 556 183 582 q 183 631 224 646 q 224 673 185 673 q 170 673 162 664 q 153 655 148 630 q 143 606 140 562 q 138 517 136 445 l 207 445 l 207 403 l 135 403 l 135 324 q 135 264 136 204 q 138 143 144 69 q 145 52 152 46 q 158 41 184 41 l 184 -1 l 6 -1 l 6 41 l 20 41 q 32 41 39 52 q 46 62 50 96 q 54 129 56 191 q 57 253 57 356 l 57 403 l 2 403 l 2 445 l 57 445 l 57 516 q 57 576 66 614 q 76 653 93 675 q 110 697 134 706 q 157 714 185 714 z"},"Q":{"x_min":0,"x_max":553,"ha":553,"o":"m 232 693 q 295 693 338 670 q 380 648 406 609 q 431 570 442 517 q 453 464 453 404 l 453 241 q 453 90 367 24 q 370 3 376 -24 q 382 -51 392 -74 q 401 -97 414 -113 q 428 -129 445 -129 l 492 -129 l 492 -171 l 424 -171 q 386 -171 362 -154 q 338 -137 323 -112 q 308 -86 300 -56 q 293 -26 289 -1 q 275 -10 232 -10 q 173 -10 131 8 q 89 26 62 59 q 35 92 22 138 q 9 184 9 241 l 9 404 q 9 464 20 517 q 30 570 56 609 q 82 648 124 670 q 167 693 232 693 z m 232 651 q 170 651 138 604 q 106 558 106 479 l 106 179 q 106 113 140 72 q 174 32 232 32 q 261 32 281 42 q 272 82 264 108 q 256 134 247 150 q 238 165 228 172 q 217 178 204 178 l 162 178 l 162 214 l 218 214 q 302 214 343 107 q 356 136 356 179 l 356 479 q 356 557 324 604 q 292 651 232 651 z"},"w":{"x_min":0,"x_max":550,"ha":550,"o":"m 540 403 l 532 403 q 516 401 507 390 q 498 378 492 357 q 485 336 478 306 q 470 275 458 235 q 440 163 426 106 q 413 48 405 0 l 338 0 q 330 41 277 225 q 242 112 220 0 l 154 0 q 152 12 144 41 q 137 70 126 108 q 116 146 104 188 q 93 231 82 268 q 72 306 64 335 q 55 364 51 375 q 43 394 35 398 q 27 403 10 403 l 10 445 l 189 445 l 189 403 l 178 403 q 145 403 145 385 q 145 383 146 381 q 146 379 147 375 q 173 236 213 115 q 235 181 249 246 q 263 311 271 375 l 331 375 q 342 306 359 242 q 376 177 398 115 q 415 179 426 224 q 437 270 443 300 q 449 331 452 348 q 454 366 454 373 q 454 393 446 398 q 437 403 416 403 l 416 445 l 540 445 z"},"-":{"x_min":0,"x_max":157,"ha":157,"o":"m 222 244 q 174 250 126 250 q 71 250 16 244 l 16 320 q 48 316 76 314 q 104 311 131 311 q 175 311 222 320 z"},"E":{"x_min":0,"x_max":451,"ha":451,"o":"m 429 -171 l 0 -171 l 0 -129 l 13 -129 q 30 -129 37 -122 q 44 -116 45 -93 q 47 -51 48 6 q 48 62 48 131 q 48 221 48 296 q 48 370 48 426 q 47 482 46 516 q 46 550 46 559 q 45 585 42 601 q 40 617 34 626 q 29 635 21 638 q 13 641 0 641 l 0 683 l 306 683 l 306 587 l 267 587 q 267 641 241 641 l 175 641 q 154 641 147 636 q 140 632 138 613 q 136 590 134 524 q 132 458 131 346 l 196 346 q 227 346 227 400 l 267 400 l 267 249 l 227 249 q 227 304 196 304 l 130 304 l 130 219 q 130 93 132 14 q 134 -65 138 -100 q 140 -119 146 -124 q 153 -129 172 -129 l 364 -129 q 390 -129 390 -74 l 429 -74 z"},"s":{"x_min":0,"x_max":302,"ha":302,"o":"m 148 455 q 172 455 194 446 q 216 437 230 411 l 230 453 l 268 453 l 268 325 l 230 325 q 230 360 210 386 q 189 413 158 413 q 108 413 108 362 q 108 347 114 336 q 119 324 131 314 q 143 304 162 294 q 181 283 209 270 q 254 249 272 214 q 291 179 291 128 q 291 98 279 73 q 267 48 246 30 q 225 11 197 0 q 169 -10 138 -10 q 113 -10 90 -2 q 67 7 48 23 q 30 39 18 62 q 7 86 5 116 l 36 125 q 41 83 70 58 q 98 32 135 32 q 163 32 183 53 q 203 74 203 104 q 203 138 190 156 q 177 173 156 185 q 136 197 110 209 q 84 221 59 245 q 39 263 31 290 q 23 318 23 345 q 23 368 32 388 q 42 408 58 423 q 75 438 98 446 q 121 455 148 455 z"},">":{"x_min":0,"x_max":462,"ha":462,"o":"m 209 280 q 129 344 44 376 l 68 447 q 148 375 265 311 l 267 269 q 191 215 140 178 q 90 141 64 118 l 53 162 z"},"l":{"x_min":0,"x_max":192,"ha":192,"o":"m 184 0 l 5 0 l 5 42 l 20 42 q 29 42 36 51 q 42 60 46 96 q 49 131 51 202 q 53 274 53 399 q 53 447 52 504 q 51 562 47 643 q 43 664 36 668 q 30 671 5 671 l 5 713 l 143 713 q 143 686 142 652 q 142 618 142 582 q 141 546 140 508 q 140 471 139 437 q 137 356 135 271 q 135 228 136 182 q 138 135 143 70 q 146 52 152 47 q 158 42 184 42 z"},"8":{"x_min":0,"x_max":363,"ha":363,"o":"m 180 694 q 213 694 240 680 q 266 667 284 643 q 303 619 312 586 q 322 552 322 512 q 322 483 319 462 q 316 441 310 424 q 303 408 292 396 q 280 383 262 372 q 339 322 339 215 q 339 105 304 48 q 268 -9 180 -9 q 92 -9 56 48 q 21 105 21 215 q 21 323 97 372 q 80 383 68 396 q 57 408 50 424 q 43 441 40 462 q 38 483 38 512 q 38 552 48 586 q 57 619 76 643 q 94 667 120 680 q 147 694 180 694 z m 180 652 q 154 652 144 628 q 134 605 134 573 l 134 469 q 134 440 144 417 q 153 394 181 394 q 205 394 216 414 q 226 435 226 469 l 226 573 q 226 606 215 629 q 204 652 180 652 z m 179 351 q 149 351 133 329 q 117 307 117 276 l 117 111 q 117 79 136 56 q 154 33 180 33 q 206 33 224 57 q 242 81 242 111 l 242 276 q 242 307 225 329 q 208 351 179 351 z"},"\\":{"x_min":0,"x_max":1313,"ha":1313,"o":"m 43 506 l 1270 506 l 1270 181 l 43 181 z m 967 448 l 911 448 l 911 259 l 943 259 l 943 381 l 946 381 l 955 259 l 1013 259 l 1013 448 l 981 448 l 981 326 l 978 326 z m 461 448 l 461 259 l 540 259 l 551 280 l 551 342 l 543 356 l 543 359 l 551 373 l 551 428 l 540 448 z m 807 428 l 807 280 l 817 259 l 884 259 l 896 280 l 896 428 l 885 448 l 817 448 z m 252 448 l 252 259 l 290 259 l 290 342 l 301 342 l 301 259 l 342 259 l 342 335 l 327 356 l 327 359 l 342 379 l 342 428 l 331 448 z m 1165 390 l 1203 390 l 1203 428 l 1193 448 l 1127 448 l 1116 428 l 1116 362 l 1128 342 l 1165 333 l 1165 295 l 1155 295 l 1155 323 l 1116 323 l 1116 280 l 1127 259 l 1192 259 l 1203 280 l 1203 352 l 1190 373 l 1155 381 l 1155 414 l 1165 414 z m 237 259 l 237 328 l 211 448 l 170 448 l 147 328 l 147 259 l 184 259 l 184 295 l 197 295 l 197 259 z m 445 259 l 445 328 l 421 448 l 380 448 l 357 328 l 357 259 l 395 259 l 395 295 l 407 295 l 407 259 z m 659 340 l 685 340 l 685 373 l 659 373 l 659 408 l 685 408 l 685 448 l 621 448 l 621 259 l 685 259 l 685 301 l 659 301 z m 767 337 l 791 337 l 791 370 l 767 370 l 767 408 l 791 408 l 791 448 l 728 448 l 728 259 l 767 259 z m 1045 408 l 1045 259 l 1084 259 l 1084 408 l 1105 408 l 1105 448 l 1024 448 l 1024 408 z m 132 301 l 110 301 l 110 448 l 72 448 l 72 259 l 132 259 z m 606 259 l 606 448 l 567 448 l 567 259 z m 845 295 l 845 414 l 856 414 l 856 295 z m 184 323 l 184 342 l 190 392 l 192 392 l 197 342 l 197 323 z m 395 323 l 395 342 l 400 392 l 403 392 l 407 342 l 407 323 z m 500 342 l 511 342 l 511 295 l 500 295 z m 500 373 l 500 414 l 511 414 l 511 373 z m 290 373 l 290 414 l 301 414 l 301 373 z"},"e":{"x_min":0,"x_max":359,"ha":359,"o":"m 320 106 q 285 -7 180 -7 q 144 -7 115 10 q 86 27 65 56 q 44 84 32 122 q 21 160 21 201 l 21 257 q 21 296 33 332 q 45 368 66 395 q 88 422 117 438 q 146 455 180 455 q 244 455 280 420 q 317 384 317 320 q 317 308 314 298 q 311 288 302 280 q 294 271 280 262 q 265 254 243 244 l 117 188 l 117 113 q 117 81 136 58 q 154 35 180 35 q 197 35 216 40 q 234 46 250 56 q 266 65 278 78 q 290 91 295 106 z m 259 329 q 259 413 180 413 q 166 413 154 406 q 143 400 134 389 q 126 378 122 364 q 117 350 117 335 l 117 238 l 230 284 q 259 296 259 329 z"},"b":{"x_min":0,"x_max":384,"ha":384,"o":"m 209 455 q 249 455 279 438 q 309 422 328 395 q 348 368 358 332 q 367 296 367 257 l 367 191 q 367 152 355 116 q 343 80 322 53 q 300 26 271 10 q 242 -7 209 -7 q 181 -7 156 12 q 130 30 106 56 q 92 13 82 -3 l 42 11 q 47 46 50 90 q 52 133 54 178 q 55 223 56 267 q 56 311 56 347 q 56 371 56 402 q 55 432 54 466 q 54 500 54 534 q 53 568 53 600 q 53 633 46 652 q 39 671 8 671 l 8 713 l 146 713 q 146 706 144 626 q 143 547 139 413 q 167 455 209 455 z m 209 413 q 194 413 182 406 q 171 400 163 389 q 155 378 150 364 q 146 350 146 335 l 146 113 q 146 82 164 58 q 181 35 209 35 q 235 35 253 59 q 271 83 271 113 l 271 335 q 271 350 266 364 q 262 378 254 389 q 246 400 234 406 q 223 413 209 413 z"},"%":{"x_min":0,"x_max":519,"ha":519,"o":"m 375 278 q 397 278 416 266 q 435 255 450 236 q 464 217 472 192 q 480 168 480 142 l 480 111 q 480 85 472 60 q 464 36 450 17 q 435 -2 416 -14 q 397 -25 375 -25 q 352 -25 333 -14 q 314 -2 300 16 q 286 35 278 60 q 270 84 270 111 l 270 142 q 270 169 278 194 q 286 218 300 236 q 314 255 333 266 q 352 278 375 278 z m 375 249 q 356 249 344 232 q 333 216 333 196 l 333 57 q 333 36 346 20 q 358 4 375 4 q 392 4 404 20 q 416 36 416 57 l 416 196 q 416 216 404 232 q 393 249 375 249 z m 407 680 q 318 473 250 298 q 181 123 130 -25 l 85 -25 q 90 -13 104 22 q 118 56 138 104 q 157 153 180 211 q 203 269 226 330 q 250 390 273 448 q 296 506 314 554 q 333 602 346 636 q 358 669 362 680 z m 120 663 q 142 663 161 652 q 180 640 194 621 q 209 602 217 578 q 225 553 225 527 l 225 496 q 225 470 217 446 q 209 421 194 402 q 180 383 161 372 q 142 360 120 360 q 97 360 78 372 q 59 383 45 402 q 31 420 23 444 q 15 469 15 496 l 15 527 q 15 554 23 578 q 31 603 45 622 q 59 640 78 652 q 97 663 120 663 z m 120 634 q 101 634 90 618 q 78 601 78 581 l 78 442 q 78 421 90 405 q 103 389 120 389 q 137 389 149 405 q 161 421 161 442 l 161 581 q 161 601 150 618 q 138 634 120 634 z"},"m":{"x_min":0,"x_max":620,"ha":620,"o":"m 606 0 l 427 0 l 427 42 l 441 42 q 452 42 458 46 q 464 51 467 68 q 470 85 470 118 q 471 152 471 210 q 471 252 470 289 q 468 326 462 353 q 456 380 443 396 q 430 411 406 411 q 370 411 358 380 q 347 349 347 294 l 347 105 q 347 70 355 56 q 363 42 392 42 l 392 0 l 227 0 l 227 42 l 238 42 q 268 42 268 70 q 268 193 267 260 q 266 327 266 339 q 266 375 255 393 q 244 411 212 411 q 190 411 176 398 q 163 384 156 362 q 149 339 146 310 q 144 281 144 251 q 144 179 144 137 q 145 95 147 74 q 149 53 154 47 q 160 41 169 41 q 173 41 178 42 q 183 42 190 42 l 190 0 l 12 0 l 12 42 l 25 42 q 47 42 52 64 q 57 87 57 135 q 57 228 56 288 q 56 348 53 375 q 51 393 45 398 q 39 403 11 403 l 11 445 q 38 444 54 442 q 71 440 81 435 q 91 430 98 422 q 106 414 115 401 q 149 452 211 452 q 284 452 315 391 q 348 452 407 452 q 480 452 522 420 q 563 387 563 310 l 563 197 q 563 173 562 150 q 560 126 560 105 q 560 69 568 56 q 577 42 606 42 z"},"#":{"x_min":0,"x_max":494,"ha":494,"o":"m 178 201 l 289 201 l 322 356 l 209 356 z m 337 202 l 430 202 l 430 139 l 326 139 l 296 0 l 249 0 l 277 139 l 166 139 l 137 0 l 89 0 l 117 139 l 28 139 l 28 202 l 130 202 l 160 355 l 65 355 l 65 418 l 174 418 l 199 554 l 249 554 l 223 418 l 333 418 l 361 554 l 409 554 l 382 418 l 466 418 l 466 355 l 369 355 z"},",":{"x_min":0,"x_max":211,"ha":211,"o":"m 158 66 q 158 50 154 32 q 149 15 140 -2 q 132 -19 121 -34 q 110 -49 98 -60 q 81 -75 68 -75 l 62 -56 q 110 -39 113 3 q 100 -2 90 -2 q 66 -2 51 21 q 39 40 39 67 q 39 94 56 113 q 72 132 99 132 q 126 132 142 113 q 158 94 158 66 z"},"n":{"x_min":0,"x_max":411,"ha":411,"o":"m 403 0 l 224 0 l 224 42 l 238 42 q 259 42 263 58 q 267 73 267 116 q 267 161 268 198 q 269 235 269 267 q 269 338 258 374 q 246 411 203 411 q 182 411 169 404 q 156 396 149 381 q 142 366 140 344 q 137 323 137 295 l 137 109 q 137 88 138 75 q 138 62 142 54 q 147 47 156 44 q 164 42 181 42 l 181 0 l 2 0 l 2 42 l 16 42 q 37 42 42 63 q 47 84 47 126 q 47 189 48 238 q 48 287 48 316 q 48 345 46 362 q 45 379 40 388 q 35 397 26 400 q 17 403 2 403 l 2 445 q 29 444 46 442 q 62 440 72 436 q 83 431 90 422 q 97 414 105 401 q 119 426 145 439 q 171 452 202 452 q 257 452 288 436 q 320 419 336 391 q 352 363 356 327 q 360 291 360 252 q 360 210 360 182 q 361 153 361 132 q 361 112 362 98 q 362 83 362 70 q 362 52 370 47 q 377 42 403 42 z"},"h":{"x_min":0,"x_max":424,"ha":424,"o":"m 415 0 l 236 0 l 236 42 l 250 42 q 261 42 267 44 q 273 47 276 58 q 279 68 280 89 q 280 110 280 146 l 280 339 q 277 369 260 392 q 244 415 215 415 q 184 415 166 392 q 147 368 147 337 l 147 138 q 147 84 154 63 q 162 42 193 42 l 193 0 l 14 0 l 14 42 l 29 42 q 54 42 56 71 q 60 156 61 237 q 62 318 62 402 q 62 453 61 510 q 60 568 56 643 q 54 663 44 667 q 34 671 14 671 l 14 713 l 152 713 q 152 667 151 596 q 150 525 148 419 q 173 456 221 456 q 257 456 284 446 q 312 435 332 416 q 351 397 361 372 q 371 347 371 319 l 371 194 q 371 138 373 108 q 375 77 380 62 q 385 48 394 45 q 402 42 415 42 z"},"z":{"x_min":0,"x_max":377,"ha":377,"o":"m 321 0 l 13 0 l 13 42 q 59 115 104 204 q 149 294 194 403 l 78 403 q 50 403 52 349 l 13 349 l 13 445 l 316 445 l 316 403 q 200 200 129 42 l 256 42 q 283 42 282 97 l 321 97 z"},"B":{"x_min":0,"x_max":482,"ha":482,"o":"m 453 80 q 453 23 440 -23 q 426 -69 401 -102 q 376 -135 340 -153 q 304 -171 260 -171 l 0 -171 l 0 -129 l 10 -129 q 23 -129 30 -122 q 38 -116 42 -92 q 46 -69 47 -22 q 48 24 48 104 q 48 209 46 304 q 45 399 44 470 q 42 542 40 584 q 39 627 39 628 q 35 637 26 639 q 16 641 0 641 l 0 683 l 214 683 q 291 683 332 630 q 373 578 373 486 q 373 386 319 340 q 349 331 374 308 q 399 284 416 249 q 434 214 444 171 q 453 128 453 80 z m 168 641 q 152 641 144 622 q 137 604 134 567 q 131 530 131 474 q 131 419 130 346 l 194 346 q 233 346 255 378 q 277 410 277 458 l 277 520 q 277 574 253 608 q 229 641 187 641 z m 130 304 q 132 213 132 124 q 132 36 132 -55 q 132 -62 133 -74 q 134 -87 138 -99 q 141 -111 148 -120 q 155 -129 167 -129 l 232 -129 q 288 -129 322 -88 q 356 -47 356 18 l 356 132 q 356 210 324 257 q 293 304 232 304 z"},"K":{"x_min":0,"x_max":540,"ha":540,"o":"m 540 -171 l 475 -171 q 386 -171 333 -55 q 313 3 294 63 q 275 123 252 174 q 229 224 200 258 q 170 292 130 297 q 130 283 130 252 q 131 220 132 180 q 132 139 133 94 q 134 50 134 10 q 135 -29 136 -59 q 137 -89 138 -101 q 139 -119 148 -124 q 156 -130 169 -130 q 175 -130 179 -129 l 179 -171 l 0 -171 l 0 -129 l 9 -129 q 26 -129 33 -124 q 40 -119 42 -101 q 43 -95 44 -70 q 44 -45 44 -8 q 45 28 46 72 q 46 117 46 162 q 47 208 48 250 q 48 293 48 327 q 48 405 48 458 q 47 512 46 547 q 45 582 42 601 q 40 620 36 630 q 32 639 26 640 q 20 642 12 642 q 10 642 6 642 q 3 642 0 641 l 0 683 l 179 683 l 179 641 q 177 642 172 642 q 157 642 148 634 q 140 626 136 594 q 132 562 131 498 q 130 435 130 324 q 184 326 205 418 q 215 461 223 508 q 231 555 245 594 q 259 633 282 658 q 304 683 343 683 l 409 683 l 409 641 l 370 641 q 330 641 315 574 q 306 533 298 494 q 289 454 277 420 q 265 386 246 359 q 228 332 199 317 q 294 292 347 175 q 362 127 378 74 q 393 20 412 -25 q 430 -70 452 -100 q 474 -129 502 -129 l 540 -129 z"},"R":{"x_min":0,"x_max":562,"ha":562,"o":"m 229 683 q 306 683 347 630 q 388 578 388 486 q 388 318 247 305 q 286 286 318 249 q 350 212 370 154 q 385 110 399 60 q 413 11 430 -31 q 446 -73 467 -101 q 488 -129 517 -129 l 555 -129 l 555 -171 l 490 -171 q 401 -171 348 -55 q 328 3 309 63 q 290 123 267 174 q 244 224 214 258 q 185 292 145 297 q 145 283 146 252 q 146 220 146 179 q 147 138 148 94 q 149 49 150 9 q 150 -31 151 -60 q 152 -90 153 -101 q 154 -119 162 -124 q 171 -130 184 -130 q 190 -130 194 -129 l 194 -171 l 15 -171 l 15 -129 l 24 -129 q 41 -129 49 -124 q 57 -118 57 -101 q 59 -16 61 90 q 63 197 63 327 q 63 405 62 458 q 62 512 61 547 q 60 582 58 601 q 55 620 51 630 q 47 639 41 640 q 35 642 27 642 q 25 642 22 642 q 18 642 15 641 l 15 683 z m 183 641 q 167 641 160 624 q 152 606 150 570 q 147 533 146 478 q 146 422 145 346 l 202 346 q 247 346 270 376 q 292 407 292 458 l 292 520 q 292 574 268 608 q 244 641 202 641 z"},"T":{"x_min":0,"x_max":412,"ha":412,"o":"m 394 587 l 354 587 q 354 618 346 630 q 338 642 311 642 q 287 642 273 636 q 259 630 252 607 q 246 584 244 539 q 242 494 242 415 l 242 98 q 242 73 242 46 q 243 18 244 -8 q 245 -35 246 -58 q 247 -82 248 -100 q 249 -117 258 -123 q 267 -129 296 -129 l 296 -171 l 104 -171 l 104 -129 l 112 -129 q 146 -129 151 -100 q 152 -95 153 -73 q 154 -51 155 -22 q 156 7 157 40 q 158 72 158 98 l 158 423 q 158 446 158 467 q 157 488 156 510 q 156 532 154 557 q 153 582 151 613 q 149 631 142 636 q 135 641 117 641 l 79 641 q 53 641 53 587 l 14 587 l 14 683 l 394 683 z"},"P":{"x_min":0,"x_max":416,"ha":416,"o":"m 229 683 q 306 683 347 630 q 388 578 388 486 q 388 443 378 407 q 367 371 346 346 q 325 320 294 306 q 263 292 223 292 l 145 292 q 145 189 146 118 q 147 47 150 0 q 152 -47 156 -73 q 159 -99 164 -112 q 170 -124 177 -126 q 184 -129 194 -129 l 194 -171 l 15 -171 l 15 -129 l 25 -129 q 38 -129 46 -124 q 53 -120 57 -98 q 61 -77 62 -33 q 63 11 63 89 q 63 198 64 279 q 64 360 64 419 q 64 500 62 544 q 61 589 56 610 q 50 632 40 636 q 31 641 15 641 l 15 683 z m 183 641 q 167 641 160 622 q 152 602 150 564 q 147 525 146 468 q 146 410 145 334 l 202 334 q 247 334 270 364 q 292 395 292 446 l 292 520 q 292 574 268 608 q 244 641 202 641 z"},"t":{"x_min":0,"x_max":242,"ha":242,"o":"m 290 -22 q 289 -36 281 -51 q 273 -66 261 -79 q 249 -92 234 -100 q 220 -108 206 -108 q 175 -108 150 -102 q 124 -95 106 -76 q 87 -56 77 -22 q 67 13 67 70 l 67 282 q 67 341 64 403 l 14 403 l 14 445 q 36 445 56 462 q 76 479 90 505 q 105 531 114 563 q 122 595 122 625 l 157 625 l 157 445 l 233 445 l 233 403 l 157 403 q 153 354 150 280 q 147 206 147 105 q 147 55 150 22 q 154 -11 162 -30 q 169 -50 180 -58 q 191 -66 206 -66 q 222 -66 240 -52 q 257 -38 258 -22 z"},"M":{"x_min":0,"x_max":531,"ha":531,"o":"m 514 -171 l 335 -171 l 335 -129 l 344 -129 q 361 -129 368 -124 q 375 -120 377 -101 q 377 -1 380 106 q 383 212 383 327 q 383 351 383 376 q 383 401 382 427 q 349 252 322 104 q 295 -45 275 -170 l 208 -170 q 206 -157 198 -112 q 191 -67 180 -6 q 169 54 156 123 q 144 192 132 254 q 121 315 112 362 q 103 409 100 426 q 99 398 98 366 q 98 335 98 307 q 98 291 98 258 q 99 225 100 184 q 100 142 101 96 q 102 51 102 11 q 103 -29 104 -60 q 105 -90 106 -102 q 107 -119 115 -125 q 123 -131 137 -131 q 143 -131 147 -130 l 147 -171 l 16 -171 l 16 -130 l 25 -130 q 46 -130 54 -121 q 55 -116 56 -116 q 57 -115 58 -111 q 58 -107 58 -96 q 59 -85 60 -59 q 60 -48 60 -19 q 61 10 62 49 q 62 88 62 132 q 63 175 64 214 q 64 253 64 284 q 64 314 64 326 q 64 460 62 532 q 59 605 56 614 q 52 624 49 630 q 46 635 42 638 q 38 640 32 640 q 26 641 16 641 l 16 683 l 142 683 q 142 681 147 644 q 152 608 160 550 q 169 491 180 416 q 192 340 205 260 q 218 181 232 104 q 246 26 260 -38 q 274 19 288 86 q 302 154 318 240 q 333 326 350 434 q 368 543 389 683 l 514 683 l 514 641 q 512 642 506 642 q 492 642 484 632 q 476 622 472 588 q 467 553 466 487 q 465 421 465 308 q 465 292 466 258 q 466 225 466 184 q 467 142 468 97 q 468 52 469 12 q 470 -28 471 -58 q 472 -89 473 -101 q 475 -120 482 -125 q 490 -130 504 -130 q 510 -130 514 -129 z"},"g":{"x_min":0,"x_max":396,"ha":396,"o":"m 406 420 q 406 398 394 382 q 383 365 361 365 q 350 365 341 370 q 332 375 325 380 q 318 386 313 391 q 308 396 306 396 q 301 396 293 391 q 313 372 324 343 q 334 314 334 287 q 334 216 303 166 q 272 117 206 108 q 245 60 271 -33 q 225 5 160 5 q 86 5 86 -77 q 86 -125 118 -152 q 150 -178 198 -178 q 246 -178 282 -149 q 319 -120 328 -74 l 347 -85 q 337 -143 296 -176 q 255 -209 195 -209 q 149 -209 111 -199 q 73 -189 46 -170 q 19 -152 4 -126 q -11 -99 -11 -65 q -11 63 103 63 q 119 63 137 60 q 155 56 172 50 q 188 45 201 38 q 214 30 220 22 q 217 42 203 62 q 189 83 160 91 q 80 114 48 164 q 17 213 17 291 q 17 366 60 410 q 102 455 175 455 q 201 455 226 447 q 250 439 268 418 q 283 479 354 479 q 406 479 406 420 z m 238 335 q 238 350 234 364 q 229 378 221 389 q 213 400 202 406 q 190 413 175 413 q 161 413 150 406 q 138 400 130 389 q 122 378 118 364 q 113 350 113 335 l 113 226 q 113 194 130 170 q 148 147 175 147 q 202 147 220 170 q 238 194 238 226 z"},"j":{"x_min":0,"x_max":182,"ha":182,"o":"m 167 618 q 167 592 150 572 q 133 552 107 552 q 81 552 64 572 q 48 592 48 618 q 48 644 64 664 q 81 684 107 684 q 133 684 150 664 q 167 644 167 618 z m 159 445 q 154 382 152 298 q 149 214 149 107 l 149 -12 q 149 -106 110 -158 q 70 -210 0 -210 q -60 -210 -98 -173 q -136 -136 -136 -75 q -136 -50 -119 -31 q -102 -12 -77 -12 q -51 -12 -34 -32 q -17 -52 -17 -78 q -17 -128 -59 -141 q -58 -168 0 -168 q 23 -168 37 -148 q 51 -129 58 -80 q 66 -32 68 49 q 71 130 71 253 q 71 301 70 330 q 68 359 63 376 q 58 392 48 398 q 38 403 21 403 l 21 445 z"},"i":{"x_min":0,"x_max":203,"ha":203,"o":"m 99 687 q 124 687 141 667 q 158 647 158 621 q 158 594 141 574 q 124 554 99 554 q 73 554 56 574 q 39 594 39 621 q 39 647 56 667 q 73 687 99 687 z m 191 0 l 13 0 l 13 42 l 27 42 q 39 42 46 51 q 53 60 56 87 q 59 114 60 165 q 61 216 61 300 q 61 347 53 373 q 45 399 13 403 l 13 445 l 151 445 q 151 395 150 354 q 149 312 148 281 q 147 250 146 232 q 145 214 145 213 q 145 162 146 129 q 148 96 152 76 q 157 57 166 50 q 176 42 191 42 z"},"y":{"x_min":0,"x_max":371,"ha":371,"o":"m 358 403 l 350 403 q 327 403 318 375 q 315 365 308 338 q 302 311 292 274 q 283 238 273 196 q 263 154 253 114 q 243 74 235 40 q 227 7 222 -12 q 210 -61 197 -98 q 184 -135 168 -160 q 152 -185 130 -198 q 109 -210 80 -210 q 20 -210 -15 -173 q -50 -136 -50 -75 q -50 -50 -33 -31 q -16 -12 10 -12 q 35 -12 52 -32 q 69 -52 69 -78 q 69 -127 28 -141 q 28 -168 80 -168 q 97 -168 110 -160 q 122 -152 132 -133 q 142 -114 151 -84 q 160 -53 170 -8 q 166 3 158 33 q 149 63 137 102 q 125 141 112 185 q 99 229 87 268 q 75 307 66 336 q 57 365 54 375 q 50 385 47 390 q 44 396 40 399 q 36 402 30 402 q 23 403 13 403 l 13 445 l 192 445 l 192 403 l 182 403 q 147 403 147 382 q 147 372 151 348 q 155 323 164 288 q 172 253 185 208 q 198 164 216 115 q 229 157 240 198 q 252 239 260 274 q 268 310 272 336 q 277 363 277 377 q 277 392 268 398 q 259 403 234 403 l 234 445 l 358 445 z"},"@":{"x_min":0,"x_max":530,"ha":530,"o":"m 363 398 l 363 249 q 363 203 399 203 q 410 203 420 213 q 429 223 436 240 q 443 257 447 278 q 451 300 451 323 q 451 368 441 408 q 431 449 409 480 q 387 510 352 528 q 317 546 266 546 q 226 546 191 530 q 156 514 130 484 q 105 453 90 410 q 76 366 76 312 q 76 203 122 140 q 167 76 242 59 l 239 24 q 183 32 142 57 q 101 82 74 120 q 47 159 34 208 q 20 257 20 313 q 20 377 40 428 q 61 478 94 513 q 128 548 172 566 q 217 584 265 584 q 380 584 443 522 q 506 460 506 328 q 506 309 502 283 q 499 257 488 234 q 477 211 455 194 q 433 178 396 178 q 368 178 354 189 q 341 200 333 219 q 322 205 301 198 q 280 191 263 191 q 227 191 200 218 q 172 245 172 293 q 172 339 196 370 q 220 400 262 400 q 296 400 318 384 l 323 398 z m 283 362 q 263 362 254 342 q 244 321 244 291 q 244 262 253 244 q 262 226 281 226 q 304 226 317 253 l 317 339 q 305 362 283 362 z"},".":{"x_min":0,"x_max":200,"ha":200,"o":"m 158 67 q 158 40 141 20 q 124 0 99 0 q 73 0 56 20 q 39 40 39 67 q 39 93 56 113 q 73 133 99 133 q 124 133 141 113 q 158 93 158 67 z"},"p":{"x_min":0,"x_max":385,"ha":385,"o":"m 206 452 q 240 452 269 436 q 298 419 320 392 q 341 365 353 329 q 365 293 365 254 l 365 189 q 365 149 352 113 q 340 77 318 50 q 297 22 268 6 q 239 -10 206 -10 q 166 -10 139 29 q 138 -3 138 -23 q 138 -43 138 -62 q 138 -103 140 -126 q 143 -148 148 -158 q 154 -169 162 -171 q 171 -173 184 -173 l 184 -215 l 6 -215 l 6 -173 q 35 -173 43 -163 q 51 -153 51 -121 q 51 -108 50 -92 q 50 -75 50 -53 q 50 75 50 168 q 51 261 51 303 q 51 357 44 380 q 36 403 6 403 l 6 445 q 34 444 50 442 q 66 440 76 435 q 86 430 93 422 q 100 414 109 401 q 126 424 153 438 q 180 452 206 452 z m 206 411 q 178 411 160 386 q 143 362 143 332 l 143 137 q 143 80 162 56 q 180 32 206 32 q 232 32 250 56 q 269 80 269 110 l 269 332 q 269 362 252 386 q 234 411 206 411 z"},"X":{"x_min":0,"x_max":482,"ha":482,"o":"m 476 -171 l 284 -171 l 284 -129 l 293 -129 q 327 -129 327 -111 q 327 -78 219 207 q 111 -78 111 -111 q 111 -122 122 -126 q 133 -129 155 -129 l 155 -171 l 10 -171 l 10 -129 l 17 -129 q 30 -129 36 -125 q 42 -121 51 -101 q 52 -99 60 -81 q 67 -63 78 -34 q 90 -5 105 32 q 120 68 136 108 q 152 147 168 187 q 184 227 198 262 q 153 376 119 463 q 85 550 56 613 q 47 632 39 636 q 31 641 14 641 l 14 683 l 207 683 l 207 641 l 200 642 q 164 642 164 623 q 164 609 188 532 q 213 456 267 314 q 321 456 344 532 q 366 609 366 623 q 366 641 324 641 l 324 683 l 468 683 l 468 641 l 461 642 q 447 642 442 638 q 436 635 426 613 q 389 532 356 446 q 323 359 286 265 q 291 254 302 225 q 314 196 329 158 q 344 121 361 80 q 378 38 393 1 q 408 -36 420 -64 q 431 -92 435 -101 q 445 -123 452 -126 q 459 -129 476 -129 z"},"*":{"x_min":0,"x_max":310,"ha":310,"o":"m 290 604 q 290 593 280 584 q 270 576 254 569 q 238 562 219 556 q 200 551 181 546 q 196 540 214 534 q 233 529 250 522 q 266 516 278 508 q 289 499 289 487 q 289 456 255 456 q 237 456 222 476 q 206 496 177 527 q 178 525 182 515 q 185 505 190 492 q 194 480 198 468 q 201 455 201 448 q 201 416 167 416 q 133 416 133 448 q 133 455 136 468 q 140 480 144 493 q 149 506 154 516 q 158 527 159 530 q 132 498 114 477 q 96 456 79 456 q 44 456 44 487 q 44 499 55 508 q 66 516 82 522 q 99 529 118 534 q 137 540 154 546 q 134 551 114 556 q 95 562 80 569 q 64 576 54 584 q 44 593 44 604 q 44 635 78 635 q 94 635 114 613 q 133 591 160 559 q 159 564 155 575 q 151 586 146 599 q 142 612 138 625 q 135 638 135 646 q 135 677 169 677 q 204 677 204 646 q 204 639 200 626 q 196 614 192 601 q 187 588 182 577 q 178 566 177 562 q 201 591 220 613 q 238 635 257 635 q 290 635 290 604 z"},"Y":{"x_min":0,"x_max":495,"ha":495,"o":"m 481 641 l 474 641 q 465 641 459 638 q 453 635 446 624 q 439 612 429 588 q 419 565 402 524 l 329 347 q 322 331 312 307 q 303 283 289 251 q 289 214 288 173 q 288 132 288 90 q 288 48 288 7 q 288 -34 288 -70 q 288 -91 291 -102 q 294 -114 300 -120 q 306 -126 316 -128 q 325 -129 338 -129 l 338 -171 l 159 -171 l 159 -129 l 170 -129 q 178 -129 184 -128 q 189 -126 193 -116 q 197 -105 199 -82 q 201 -59 202 -18 q 204 24 205 88 q 206 153 207 247 q 194 284 179 323 q 164 362 146 406 q 128 451 106 502 q 84 553 57 613 q 49 632 40 636 q 32 641 15 641 l 15 683 l 208 683 l 208 641 l 201 642 q 165 642 165 623 q 165 599 272 314 q 379 599 379 623 q 379 641 337 641 l 337 683 l 481 683 z"},"c":{"x_min":0,"x_max":346,"ha":346,"o":"m 318 106 q 283 -7 178 -7 q 144 -7 115 10 q 86 26 64 53 q 43 80 31 116 q 19 152 19 191 l 19 257 q 19 296 31 332 q 43 368 64 395 q 86 422 115 438 q 144 455 178 455 q 238 455 276 418 q 315 381 315 320 q 315 295 298 276 q 280 257 255 257 q 229 257 212 277 q 195 297 195 323 q 195 371 237 386 q 235 413 178 413 q 164 413 152 406 q 141 400 132 389 q 124 378 120 364 q 115 350 115 335 l 115 113 q 115 81 134 58 q 152 35 178 35 q 194 35 213 40 q 232 46 248 56 q 265 65 277 78 q 289 91 293 106 z"},"!":{"x_min":0,"x_max":204,"ha":204,"o":"m 92 686 q 121 686 138 668 q 155 649 155 621 q 155 617 154 612 q 154 608 153 603 q 146 561 138 517 q 131 473 124 432 q 118 390 114 353 q 109 316 108 288 q 107 268 106 246 q 106 224 106 198 l 78 198 q 78 244 76 278 q 75 313 72 344 q 69 375 64 408 q 58 440 50 483 q 41 530 36 556 q 30 583 28 596 q 26 610 26 614 q 25 618 25 620 q 25 649 44 668 q 64 686 92 686 z m 93 133 q 119 133 136 113 q 153 93 153 67 q 153 40 136 20 q 119 0 93 0 q 67 0 50 20 q 33 40 33 67 q 33 93 50 113 q 67 133 93 133 z"},"/":{"x_min":0,"x_max":253,"ha":253,"o":"m 232 730 q 181 486 144 279 q 107 72 84 -102 l 35 -102 q 55 -9 76 102 q 98 213 122 347 q 144 469 160 564 q 175 660 183 730 z"},"6":{"x_min":0,"x_max":363,"ha":363,"o":"m 205 380 q 234 380 258 364 q 283 349 301 324 q 319 298 329 264 q 339 231 339 195 q 339 155 328 118 q 317 82 296 54 q 276 26 248 10 q 220 -7 187 -7 q 147 -7 116 12 q 86 31 65 64 q 44 97 34 142 q 23 188 23 241 q 23 314 42 389 q 61 464 94 527 q 128 590 174 634 q 219 679 271 693 l 277 668 q 240 658 210 628 q 180 599 158 554 q 137 509 125 450 q 113 392 111 323 q 148 380 205 380 z m 181 338 q 138 338 110 295 l 110 256 q 110 150 130 92 q 149 35 187 35 q 212 35 227 58 q 242 80 242 113 l 242 248 q 242 338 181 338 z"},"r":{"x_min":0,"x_max":325,"ha":325,"o":"m 326 326 q 326 294 308 274 q 290 255 265 255 q 238 255 222 275 q 206 295 206 324 q 206 348 218 366 q 231 385 254 385 q 254 412 215 412 q 178 412 158 360 q 137 308 137 217 q 137 168 138 132 q 140 95 144 70 q 147 52 153 47 q 159 42 185 42 l 185 0 l 6 0 l 6 42 l 20 42 q 32 42 38 52 q 45 61 48 78 q 52 94 53 117 q 54 140 54 166 q 54 230 52 283 q 51 336 48 374 q 47 384 46 390 q 45 395 40 398 q 36 401 28 402 q 20 403 6 403 l 6 445 l 131 445 l 131 393 q 147 454 215 454 q 270 454 298 424 q 326 394 326 326 z"},"2":{"x_min":0,"x_max":342,"ha":342,"o":"m 161 694 q 236 694 279 650 q 322 606 322 519 q 322 458 296 409 q 271 360 222 325 q 198 308 176 295 q 154 282 138 258 q 121 235 112 194 q 102 152 102 79 l 102 43 l 255 43 q 270 43 276 56 q 282 68 282 93 l 315 93 l 315 1 l 24 1 l 24 76 q 24 135 34 176 q 43 216 61 246 q 79 275 104 298 q 129 321 161 344 q 196 370 216 420 q 237 469 237 555 q 237 574 230 592 q 224 609 213 622 q 202 636 188 644 q 175 652 161 652 q 103 652 102 625 q 144 610 144 562 q 144 536 127 516 q 110 496 84 496 q 59 496 42 515 q 24 534 24 559 q 24 620 62 657 q 100 694 161 694 z"},"9":{"x_min":0,"x_max":351,"ha":351,"o":"m 163 691 q 202 691 232 677 q 263 663 284 631 q 305 599 316 548 q 327 497 327 422 q 327 350 308 280 q 289 210 256 152 q 222 95 176 54 q 131 14 78 0 l 73 25 q 149 45 192 123 q 234 201 239 341 q 200 284 144 284 q 115 284 91 300 q 67 317 49 344 q 31 371 21 406 q 11 441 11 478 q 11 582 52 636 q 93 691 163 691 z m 163 649 q 137 649 122 626 q 107 602 107 570 l 107 416 q 107 325 169 325 q 210 325 239 369 q 239 375 240 389 q 240 403 240 417 q 240 431 240 444 q 240 456 240 459 q 240 522 235 560 q 230 597 220 617 q 211 637 196 643 q 182 649 163 649 z"}," ":{"x_min":0,"x_max":225,"ha":225,"o":""},"I":{"x_min":0,"x_max":212,"ha":212,"o":"m 192 -171 l 14 -171 l 14 -129 l 28 -129 q 38 -129 44 -127 q 49 -125 52 -116 q 55 -108 56 -92 q 56 -75 57 -46 q 58 -4 58 48 q 59 99 60 151 q 60 203 60 252 q 61 301 61 340 q 61 378 61 402 q 61 427 61 429 q 61 467 60 510 q 59 553 55 613 q 53 633 45 637 q 37 641 14 641 l 14 683 l 192 683 l 192 641 q 187 642 180 642 q 157 642 152 613 q 151 609 150 574 q 148 540 146 493 q 145 446 144 396 q 143 345 143 308 q 143 211 145 120 q 147 28 147 -60 q 147 -73 148 -86 q 150 -98 154 -108 q 159 -117 168 -123 q 177 -129 192 -129 z"},"H":{"x_min":0,"x_max":480,"ha":480,"o":"m 463 -171 l 284 -171 l 284 -129 l 295 -129 q 303 -129 309 -125 q 315 -121 319 -107 q 323 -93 326 -65 q 328 -37 330 11 q 331 59 332 130 q 332 202 332 304 l 147 304 q 151 -98 159 -113 q 166 -129 196 -129 l 196 -171 l 17 -171 l 17 -129 l 28 -129 q 39 -129 46 -124 q 53 -120 58 -104 q 62 -88 64 -56 q 65 -25 65 29 q 65 48 64 92 q 64 136 64 193 q 63 250 62 314 q 61 378 60 436 q 60 495 60 542 q 59 589 59 612 q 59 632 50 636 q 40 641 17 641 l 17 683 l 196 683 l 196 641 l 185 642 q 170 642 162 624 q 154 607 151 570 q 148 534 148 478 q 148 422 147 346 l 332 346 q 332 446 331 505 q 330 564 327 594 q 324 625 318 634 q 313 642 303 642 l 302 642 l 284 641 l 284 683 l 463 683 l 463 641 q 458 642 456 642 q 453 642 451 642 q 427 642 424 626 q 421 609 420 575 q 419 550 418 516 q 417 481 416 444 q 415 408 414 372 q 414 336 414 308 q 414 111 417 6 q 420 -98 424 -107 q 428 -117 436 -123 q 445 -129 463 -129 z"},"4":{"x_min":0,"x_max":363,"ha":363,"o":"m 332 304 l 275 304 q 274 253 273 215 q 272 177 272 148 q 272 116 274 96 q 275 75 280 63 q 284 51 292 46 q 300 41 312 41 q 319 41 323 42 l 323 0 l 144 0 l 144 42 l 156 42 q 172 42 179 59 q 186 76 188 109 q 191 142 191 191 q 191 240 193 304 l 4 304 q 29 388 46 463 q 63 538 71 605 l 143 605 q 135 579 128 556 q 122 532 116 504 q 109 475 102 438 q 94 400 85 347 l 193 347 q 193 360 192 386 q 192 412 191 444 q 190 477 189 512 q 188 548 187 581 q 186 614 186 641 q 185 668 185 683 l 323 683 l 323 641 q 318 642 315 642 q 312 642 310 642 q 286 642 281 613 q 281 611 280 582 q 279 552 278 510 q 277 469 276 424 q 275 379 275 347 l 332 347 z"},"D":{"x_min":0,"x_max":506,"ha":506,"o":"m 280 683 q 320 683 352 661 q 384 639 406 600 q 429 560 441 506 q 453 452 453 388 l 453 157 q 453 71 440 10 q 426 -52 401 -92 q 376 -133 340 -152 q 304 -171 260 -171 l 0 -171 l 0 -129 l 10 -129 q 23 -129 30 -122 q 38 -116 42 -92 q 46 -69 47 -22 q 48 24 48 104 q 48 209 46 304 q 45 399 44 470 q 42 542 40 584 q 39 627 39 628 q 35 637 26 639 q 16 641 0 641 l 0 683 z m 168 642 q 143 642 138 613 q 138 611 137 594 q 136 577 136 551 q 135 525 134 492 q 133 460 132 427 q 131 394 130 363 q 130 332 130 308 q 130 212 131 117 q 132 22 134 -65 q 134 -70 135 -80 q 136 -91 139 -102 q 142 -113 148 -121 q 155 -129 167 -129 l 232 -129 q 260 -129 282 -117 q 305 -105 322 -80 q 338 -55 347 -16 q 356 24 356 80 l 356 392 q 356 460 348 508 q 339 555 324 585 q 308 615 285 628 q 262 642 232 642 z"},"0":{"x_min":0,"x_max":444,"ha":444,"o":"m 418 241 q 418 184 405 138 q 392 92 366 59 q 341 26 304 8 q 267 -10 218 -10 q 166 -10 128 8 q 89 27 64 60 q 39 94 27 140 q 15 186 15 241 l 15 404 q 15 471 26 525 q 37 579 62 616 q 86 653 124 673 q 163 693 219 693 q 272 693 310 672 q 348 650 372 612 q 396 574 407 520 q 418 467 418 404 z m 321 479 q 321 651 211 651 q 184 651 166 642 q 147 634 135 614 q 123 593 118 560 q 112 527 112 479 l 112 179 q 112 32 211 32 q 265 32 293 71 q 321 110 321 179 z"},"F":{"x_min":0,"x_max":335,"ha":335,"o":"m 306 587 l 267 587 q 267 641 241 641 l 175 641 q 154 641 147 636 q 140 632 138 613 q 136 590 134 514 q 132 438 131 326 l 196 326 q 227 326 227 380 l 267 380 l 267 229 l 227 229 q 227 284 196 284 l 130 284 l 130 199 q 130 134 130 86 q 131 37 132 1 q 133 -35 134 -60 q 136 -84 138 -100 q 140 -118 150 -124 q 159 -129 186 -129 l 186 -171 l 0 -171 l 0 -129 l 14 -129 q 40 -129 42 -91 q 48 41 48 282 q 48 403 48 472 q 47 542 46 559 q 45 586 42 602 q 39 618 34 627 q 29 636 20 638 q 12 641 0 641 l 0 683 l 306 683 z"},"`":{"x_min":0,"x_max":215,"ha":215,"o":"m 194 490 l 150 490 l 17 582 l 96 582 z"},"k":{"x_min":0,"x_max":380,"ha":380,"o":"m 374 0 l 331 0 q 310 0 292 5 q 275 10 260 24 q 244 37 228 61 q 212 85 193 123 q 164 180 140 204 q 141 177 142 148 q 143 119 146 70 q 149 50 157 46 q 165 42 187 42 l 187 0 l 8 0 l 8 42 l 34 42 q 41 42 46 56 q 50 70 53 116 q 56 163 57 252 q 58 341 58 490 q 58 541 57 576 q 56 611 52 632 q 47 653 36 662 q 26 671 8 671 l 8 713 l 146 713 q 146 697 146 669 q 145 641 144 606 q 143 571 142 533 q 141 495 140 459 q 139 423 138 392 q 138 362 138 342 q 138 313 138 284 q 138 256 139 227 q 158 246 179 270 q 200 295 218 318 q 236 342 248 360 q 259 379 259 387 q 259 403 222 403 l 222 445 l 360 445 l 360 403 q 349 403 336 396 q 323 388 305 368 q 287 348 262 312 q 237 277 200 221 q 208 217 218 205 q 229 193 240 178 q 252 163 264 146 q 275 129 284 115 q 294 101 300 91 q 306 81 307 80 q 339 42 374 42 z"},"u":{"x_min":0,"x_max":394,"ha":394,"o":"m 385 403 l 374 403 q 352 403 348 386 q 343 370 343 341 l 343 143 q 343 71 310 30 q 278 -10 206 -10 q 133 -10 92 30 q 50 71 50 143 q 50 382 43 393 q 36 403 8 403 l 8 445 l 187 445 l 187 403 l 173 403 q 151 403 146 380 q 141 356 141 292 l 141 257 q 141 195 142 153 q 143 111 150 84 q 156 58 170 46 q 183 35 208 35 q 232 35 245 46 q 258 56 264 79 q 271 102 272 138 q 274 174 274 226 q 274 232 274 256 q 273 279 272 305 q 272 331 272 352 q 271 373 271 375 q 270 384 268 390 q 267 395 263 398 q 259 401 251 402 q 243 403 229 403 l 229 445 l 385 445 z"},"U":{"x_min":0,"x_max":497,"ha":497,"o":"m 482 641 q 477 642 474 642 q 472 642 470 642 q 447 642 442 612 q 436 581 436 512 q 436 484 436 434 q 437 385 438 326 q 439 267 440 204 q 440 142 440 88 q 440 -46 404 -114 q 368 -181 277 -181 q 165 -181 114 -120 q 64 -59 64 66 q 64 85 64 124 q 65 162 66 206 q 67 250 68 293 q 68 336 68 365 q 68 396 68 423 q 68 450 68 478 q 67 506 66 538 q 64 571 62 613 q 59 633 52 637 q 44 641 20 641 l 20 683 l 206 683 l 206 641 q 201 642 198 642 q 196 642 194 642 q 181 642 174 630 q 167 619 164 593 q 160 567 159 525 q 158 483 158 421 q 158 391 158 311 q 159 231 159 119 q 159 71 162 25 q 164 -21 176 -58 q 188 -94 212 -116 q 235 -139 277 -139 q 320 -139 344 -116 q 368 -92 380 -50 q 391 -9 394 46 q 396 102 396 165 q 396 168 396 194 q 395 219 394 257 q 394 295 393 341 q 392 387 392 431 q 391 475 390 512 q 390 550 390 571 q 390 608 381 624 q 372 641 344 641 l 344 683 l 482 683 z"},"o":{"x_min":0,"x_max":350,"ha":350,"o":"m 176 455 q 209 455 238 438 q 267 422 288 394 q 310 367 322 332 q 335 296 335 257 l 335 191 q 335 152 322 116 q 310 81 288 54 q 267 26 238 10 q 209 -7 176 -7 q 142 -7 113 10 q 84 26 62 53 q 41 80 29 116 q 17 152 17 191 l 17 257 q 17 296 29 332 q 41 368 62 395 q 84 422 113 438 q 142 455 176 455 z m 176 413 q 162 413 150 406 q 139 400 130 389 q 122 378 118 364 q 113 350 113 335 l 113 113 q 113 81 132 58 q 150 35 176 35 q 202 35 220 59 q 238 83 238 113 l 238 335 q 238 350 234 364 q 229 378 221 389 q 213 400 202 406 q 190 413 176 413 z"},"N":{"x_min":0,"x_max":463,"ha":463,"o":"m 447 641 q 444 642 439 642 q 424 642 416 634 q 407 627 403 594 q 399 562 398 496 q 398 430 398 312 l 398 218 q 398 125 400 28 q 402 -68 406 -171 l 309 -171 q 265 14 214 188 q 164 362 106 530 q 106 524 106 494 q 105 464 105 421 q 105 378 104 330 q 104 281 104 238 q 104 196 104 166 q 104 136 104 131 q 104 38 105 -14 q 106 -67 111 -92 q 116 -118 126 -124 q 136 -129 153 -129 l 153 -171 l 15 -171 l 15 -129 l 25 -129 q 38 -129 46 -122 q 53 -116 57 -92 q 61 -69 62 -22 q 63 24 63 104 q 63 209 62 304 q 60 399 58 470 q 57 542 56 584 q 54 627 54 628 q 50 637 40 639 q 31 641 15 641 l 15 683 l 156 683 q 248 336 354 33 q 357 193 357 327 q 357 613 348 628 q 344 637 334 639 q 325 641 309 641 l 309 683 l 447 683 z"},"+":{"x_min":0,"x_max":171,"ha":171,"o":"m 208 250 l 96 250 l 96 134 l 60 134 l 60 250 l -53 250 l -53 294 l 60 294 l 60 395 l 96 395 l 96 294 l 208 294 z"},"G":{"x_min":0,"x_max":463,"ha":463,"o":"m 443 -171 q 414 -171 394 -168 q 374 -165 360 -158 q 345 -150 335 -136 q 325 -123 316 -102 q 308 -136 276 -158 q 244 -181 195 -181 q 150 -181 116 -160 q 81 -140 58 -105 q 36 -70 24 -22 q 13 26 13 80 l 13 404 q 13 465 25 518 q 37 571 62 610 q 88 649 127 671 q 166 693 220 693 q 261 693 292 683 q 323 673 344 656 q 364 639 374 616 q 385 593 385 567 q 385 540 368 518 q 352 496 325 496 q 273 496 273 559 q 273 587 279 600 q 285 614 309 624 q 285 651 232 651 q 170 651 138 604 q 106 558 106 479 l 106 18 q 106 -14 112 -42 q 119 -71 132 -92 q 145 -114 164 -126 q 184 -139 211 -139 q 234 -139 252 -122 q 271 -105 284 -76 q 297 -46 304 -8 q 311 31 311 74 q 311 123 310 154 q 308 184 303 202 q 298 219 289 226 q 280 232 264 232 l 264 274 l 443 274 l 443 232 l 416 232 q 415 232 412 226 q 408 221 404 198 q 400 174 396 126 q 393 77 393 -10 q 393 -30 394 -51 q 396 -72 400 -90 q 404 -107 412 -118 q 420 -130 432 -130 q 434 -130 437 -130 q 440 -129 443 -129 z"},"q":{"x_min":0,"x_max":379,"ha":379,"o":"m 399 -141 q 399 -172 379 -192 q 359 -212 328 -212 q 300 -212 283 -202 q 266 -192 256 -165 q 247 -138 244 -90 q 240 -43 240 32 q 227 10 208 0 q 188 -10 157 -10 q 129 -10 103 2 q 77 15 56 40 q 36 64 24 102 q 12 139 12 189 l 12 254 q 12 301 24 338 q 36 375 58 400 q 79 426 108 439 q 137 452 171 452 q 203 452 227 438 q 251 425 268 401 q 277 414 284 422 q 291 431 302 436 q 312 440 328 442 q 344 444 371 445 l 371 403 l 357 403 q 333 403 330 375 q 330 374 330 360 q 329 345 328 322 q 327 298 326 269 q 326 240 326 210 q 325 179 324 150 q 324 121 324 98 q 324 9 325 -42 q 326 -94 328 -120 q 330 -146 334 -153 q 339 -160 347 -160 q 361 -160 361 -107 l 399 -107 z m 234 332 q 234 362 216 386 q 199 411 171 411 q 143 411 126 386 q 108 362 108 332 l 108 110 q 108 80 126 56 q 145 32 171 32 q 197 32 216 56 q 234 80 234 110 z"},"d":{"x_min":0,"x_max":381,"ha":381,"o":"m 234 643 q 231 672 205 672 q 204 672 201 672 q 198 672 192 671 l 192 713 l 330 713 l 330 673 q 330 663 330 627 q 329 591 328 540 q 328 490 328 432 q 327 374 327 319 q 327 245 328 178 q 329 112 333 70 q 335 53 341 47 q 347 41 364 41 q 366 41 370 41 q 373 41 375 42 l 375 0 q 348 1 332 3 q 315 5 304 10 q 294 14 287 22 q 280 30 272 44 q 254 22 228 8 q 202 -7 175 -7 q 140 -7 112 10 q 83 26 62 54 q 41 81 30 116 q 18 152 18 191 l 18 257 q 18 296 30 332 q 42 367 63 394 q 84 422 112 438 q 141 455 175 455 q 215 455 244 413 q 243 428 243 452 q 243 476 242 506 q 241 536 240 571 q 238 606 234 643 z m 237 335 q 237 350 232 364 q 228 378 220 389 q 212 400 200 406 q 189 413 175 413 q 161 413 150 406 q 139 400 131 389 q 123 378 118 364 q 114 350 114 335 l 114 113 q 114 81 131 58 q 148 35 175 35 q 201 35 219 59 q 237 83 237 113 z"},"1":{"x_min":0,"x_max":192,"ha":192,"o":"m 179 0 l 0 0 l 0 42 l 15 42 q 39 42 42 70 q 42 72 43 102 q 44 133 45 176 q 46 219 47 265 q 48 311 48 344 q 48 431 42 565 l 0 565 l 0 606 q 15 607 30 613 q 46 619 58 630 q 71 640 79 654 q 87 668 88 683 l 131 683 l 131 513 q 131 466 130 432 q 130 397 130 369 q 130 341 130 317 q 129 293 129 268 q 129 223 131 174 q 133 126 141 59 q 145 42 179 42 z"},"5":{"x_min":0,"x_max":353,"ha":353,"o":"m 327 188 q 327 149 315 114 q 303 78 282 51 q 261 24 232 8 q 203 -7 168 -7 q 142 -7 118 -2 q 93 3 73 14 q 53 25 38 44 q 22 63 13 91 l 33 106 q 36 91 51 78 q 66 65 86 56 q 106 46 128 40 q 150 35 168 35 q 194 35 212 59 q 230 83 230 113 l 230 268 q 230 375 151 375 q 119 375 87 366 q 55 356 28 338 q 30 380 32 414 q 33 449 34 479 q 36 509 37 536 q 38 563 38 590 q 38 633 35 684 l 300 684 l 300 581 l 266 581 q 265 642 242 642 l 129 642 q 125 538 124 491 q 122 444 122 436 q 122 428 122 418 q 123 408 124 397 q 148 404 176 404 q 212 404 240 386 q 268 369 288 339 q 307 309 317 270 q 327 231 327 188 z"}}}
